# xmcd
#
# Track frame offsets:
# 150
# 12106
# 42917
# 70875
# 97844
# 122811
# 151855
# 189256
#
# Disc length: 3089 seconds
#
#
# Revision: 0
# Processed by: cddbd v1.5.1PL2 Copyright (c) Steve Scherf et al.
# Submitted via: FreeRIP 2.944 
#
DISCID=570c0f08
DTITLE=Urban Cookie Collective - The Key, The Secret 2005
DYEAR=2005
DGENRE=Trance
TTITLE0=The Key, The Secret 2005 (Radio Edit)
TTITLE1=The Key, The Secret 2005 (Mat Aradshaw's Retro Re-Club)
TTITLE2=The Key, The Secret 2005 (Northstarz Club Mix)
TTITLE3=The Key, The Secret 2005 (Lee's Remix)
TTITLE4=The Key, The Secret 2005 (Central Seven Mix)
TTITLE5=The Key, The Secret 2005 (DJ Puddy Remix)
TTITLE6=The Key, The Secret 2005 (Future Force Remix Edit)
TTITLE7=Enhanced Video
EXTD=
EXTT0=
EXTT1=
EXTT2=
EXTT3=
EXTT4=
EXTT5=
EXTT6=
EXTT7=
PLAYORDER=
